# xmcd
# Track frame offsets:
# 150
# 17308
# 37631
# 59491
# 75379
# 88715
# 104310
# 126869
# 146163
# 161953
# 177657
#
# Disc length: 2562 seconds
# Revision: 0
# Processed by: cddbd v1.5.2PL0 Copyright (c) Steve Scherf et al.
# Submitted via: VisiTrax 2.10.0.248 - For more info visit www.synapsa.com
#
DISCID=8a0a000b
DTITLE=Brooks, Danny - No Easy Way Out
DYEAR=2007
DGENRE=Blues
TTITLE0=Ain't That The Truth
TTITLE1=All God's Children
TTITLE2=No Easy Way Out
TTITLE3=Keys To My Heart
TTITLE4=Bama Bound
TTITLE5=Miracles For Breakfast
TTITLE6=Lonesome Road
TTITLE7=Where Sinners And Saints Collide
TTITLE8=Memphis, Tennessee
TTITLE9=I Believe In Love
TTITLE10=Carry Me Jesus
EXTD=
EXTT0=
EXTT1=
EXTT2=
EXTT3=
EXTT4=
EXTT5=
EXTT6=
EXTT7=
EXTT8=
EXTT9=
EXTT10=Brooks, Danny
PLAYORDER=
